<?xml version="1.0" encoding="UTF-8"?>
<svg width="16px" height="24px" viewBox="0 0 16 24" version="1.1" xmlns="http://www.w3.org/2000/svg" xmlns:xlink="http://www.w3.org/1999/xlink">
    <!-- Generator: Sketch 52.5 (67469) - http://www.bohemiancoding.com/sketch -->
    <title>icon-wrapper-44px</title>
    <desc>Created with Sketch.</desc>
    <defs>
        <path d="M8,10.089666 C6.98205446,10.089666 6.15470297,9.26020707 6.15470297,8.24164876 C6.15470297,7.22309045 6.98205446,6.39363157 8,6.39363157 C9.01794554,6.39363157 9.84529703,7.22309045 9.84529703,8.24164876 C9.84529703,9.26020707 9.01794554,10.089666 8,10.089666 M8,5.53408869 C6.50556931,5.53408869 5.29269802,6.75034186 5.29269802,8.23735105 C5.29269802,9.73295566 6.50990099,10.9406134 8,10.9406134 C9.49009901,10.9406134 10.707302,9.72436023 10.707302,8.23735105 C10.707302,6.75034186 9.49443069,5.53408869 8,5.53408869 M13.5618812,10.0724751 C13.4882426,10.2916585 13.3409653,10.6526665 13.25,10.841766 L8.04764851,21.8954874 C8.03032178,21.9342098 8.01299505,21.9556984 8,21.9642508 C7.98700495,21.9556984 7.96967822,21.9298691 7.95235149,21.8954874 L2.75433168,10.8374683 C2.66336634,10.6397734 2.51608911,10.2830631 2.44678218,10.0724751 C2.42945545,10.0252002 2.04393564,8.86481735 2.04393564,8.00527447 C2.03960396,4.70892752 4.71658416,2.03145146 8,2.03145146 C11.2834158,2.03145146 13.960396,4.70892752 13.960396,8.00527447 C13.960396,8.68861106 13.7091584,9.6255128 13.5618812,10.0724751 M8,0.5 C3.8647896,0.5 0.5,3.78892362 0.5,7.81920297 C0.5,8.87956632 0.936262376,10.1825552 0.987314356,10.3263333 C1.07549505,10.582438 1.24721535,10.9958 1.36324257,11.2429185 L6.93719059,22.7990819 C7.15068069,23.2394472 7.54517327,23.5 7.99535891,23.5 C8.44554455,23.5 8.84003713,23.2394472 9.05352723,22.7990819 L14.6321163,11.2429185 C14.7527847,10.9958 14.9198639,10.582438 15.0126856,10.3218402 C15.0637376,10.1780621 15.5,8.87507326 15.5,7.8147099 C15.5,3.78443055 12.1398515,0.5 8,0.5" id="path-1"></path>
    </defs>
    <g id="Symbols" stroke="none" stroke-width="1" fill="none" fill-rule="evenodd">
        <g id="Navigation/Desktop/header-1440" transform="translate(-1273.000000, -20.000000)">
            <g id="right-button-group" transform="translate(1186.000000, 0.000000)">
                <g id="refactor/nav/nav-icon-button" transform="translate(63.000000, 0.000000)">
                    <g id="icon-wrapper-44px">
                        <g transform="translate(10.000000, 10.000000)">
                            <g id="icons/44px/map-pin">
                                <g id="icon-color" transform="translate(14.000000, 10.000000)">
                                    <mask id="mask-2" fill="white">
                                        <use xlink:href="#path-1"></use>
                                    </mask>
                                    <use id="Mask" fill="#000000" xlink:href="#path-1"></use>
                                    <g id="solid/grayscale/666666-mid-gray" mask="url(#mask-2)" fill="#666666">
                                        <g transform="translate(-14.000000, -10.000000)" id="fill">
                                            <rect x="0" y="0" width="44" height="44"></rect>
                                        </g>
                                    </g>
                                </g>
                            </g>
                        </g>
                    </g>
                </g>
            </g>
        </g>
    </g>
</svg>